<?xml version="1.0" encoding="utf-8"?>
<svg width="377px" height="115px" viewbox="0 0 377 115" version="1.1" xmlns:xlink="http://www.w3.org/1999/xlink" xmlns="http://www.w3.org/2000/svg">
  <defs>
    <rect width="377" height="115" id="artboard_1" />
    <clipPath id="clip_1">
      <use xlink:href="#artboard_1" clip-rule="evenodd" />
    </clipPath>
  </defs>
  <g id="diorLogoBar" clip-path="url(#clip_1)">
    <path d="M0 0L377 0L377 115L0 115L0 0Z" id="Rectangle" fill-rule="evenodd" stroke="none" />
    <g id="Group-12" transform="translate(111 35)">
      <path d="M12.8456 21.5091C12.9324 21.517 12.9844 21.5268 13.0346 21.5249C14.6261 21.5111 16.2195 21.5367 17.809 21.4717C19.74 21.389 21.6092 20.9659 23.3666 20.1196C25.7547 18.9682 27.4812 17.1909 28.3049 14.587C28.8875 12.7487 28.9531 10.8671 28.6483 8.97175C28.2471 6.47019 27.08 4.43705 25.0101 2.98846C23.1679 1.70127 21.0903 1.08719 18.895 0.915959C17.4695 0.803772 16.0323 0.823454 14.601 0.825422C13.459 0.827391 12.8456 1.50051 12.8456 2.66765C12.8456 8.83988 12.8456 15.0121 12.8456 21.1863L12.8456 21.5091ZM21.1964 22.257C22.0606 22.5385 22.9653 22.7648 23.816 23.123C26.8504 24.3984 29.418 26.3253 31.2622 29.1201C32.1379 30.4466 32.8363 31.8952 33.5886 33.3025C34.5145 35.0384 35.4173 36.7842 36.5747 38.3765C37.3213 39.4019 38.1508 40.3486 39.2137 41.0512C40.1801 41.6909 41.2276 41.9999 42.385 41.8818C42.7303 41.8464 42.9464 41.9586 42.9908 42.179C43.0448 42.4526 42.8596 42.7262 42.5124 42.7793C41.9028 42.8718 41.2874 42.9565 40.6701 42.982C38.5597 43.0706 36.4879 42.8403 34.4894 42.0964C31.5206 40.9922 29.2463 39.0142 27.5372 36.3315C26.5225 34.7412 25.7451 33.021 24.9387 31.3166C24.1247 29.5944 23.3068 27.8742 22.1898 26.3272C21.0517 24.7527 19.6609 23.5147 17.8186 22.8672C16.8136 22.5129 15.7738 22.379 14.7187 22.3594C14.1091 22.3476 13.4995 22.3574 12.8456 22.3574L12.8456 22.7136C12.8456 28.3092 12.8456 33.9048 12.8456 39.5023C12.8456 40.6261 13.5419 41.3425 14.655 41.3484C15.8066 41.3543 16.9563 41.3484 18.1061 41.3504C18.2199 41.3504 18.3645 41.3327 18.4398 41.3937C18.5517 41.4823 18.6732 41.6319 18.679 41.7598C18.6828 41.8739 18.5594 42.0314 18.4514 42.1042C18.351 42.1692 18.1948 42.1593 18.0655 42.1593C12.2707 42.1633 6.47584 42.1613 0.680985 42.1613C0.273956 42.1613 0.046329 42.0078 0.0559742 41.7421C0.0656195 41.4902 0.28746 41.3504 0.679056 41.3504C1.79404 41.3504 2.9071 41.3504 4.02209 41.3504C4.99433 41.3504 5.63285 40.817 5.82382 39.8369C5.85469 39.6715 5.87205 39.4983 5.87205 39.3271C5.87398 27.2149 5.87398 15.1007 5.86819 2.98846C5.86626 2.63222 5.81032 2.26614 5.71194 1.92367C5.49974 1.19544 4.97311 0.821486 4.22657 0.819518C3.04021 0.815582 1.85577 0.819518 0.669411 0.81755C0.598036 0.81755 0.526661 0.821486 0.457216 0.81755C0.169788 0.801804 -0.00189714 0.640413 3.19049e-05 0.396358C0.00389 0.158207 0.160143 0.0204336 0.4495 0.0066563C0.518945 0.00271993 0.59032 0.00468811 0.661695 0.00468811C6.38517 0.00468811 12.1087 -0.0090892 17.8321 0.0105927C20.8164 0.0224018 23.7852 0.260553 26.6922 1.0124C28.6502 1.52019 30.5118 2.25826 32.1283 3.53759C34.0168 5.03144 35.0913 7.01144 35.4463 9.40672C35.7067 11.1466 35.6893 12.8786 35.1646 14.5752C34.4817 16.7815 33.0658 18.3836 31.1561 19.5665C29.4681 20.6136 27.6163 21.2237 25.6969 21.641C24.2424 21.9579 22.7705 22.1468 21.2851 22.2472C21.2446 22.2511 21.206 22.257 21.1964 22.257L21.1964 22.257Z" transform="translate(111.999985 1)" id="Fill-3" fill="#FFFFFF" fill-rule="evenodd" stroke="none" />
      <path d="M37.3259 22.6068C37.3473 19.929 37.1485 17.4679 36.6359 15.0383C36.0297 12.1713 35.0531 9.45606 33.4255 7.00877C32.0065 4.87674 30.2191 3.16048 27.8977 2.059C25.775 1.0521 23.5373 0.732887 21.2139 0.937813C18.795 1.15062 16.6119 1.98806 14.688 3.48757C12.6238 5.09743 11.1717 7.18414 10.0821 9.55064C8.88921 12.1457 8.22259 14.8886 7.90292 17.7201C7.46826 21.5507 7.58131 25.3635 8.37463 29.1428C8.91845 31.7399 9.78778 34.2128 11.1776 36.4788C12.6161 38.8217 14.4795 40.7133 16.9803 41.8936C19.6214 43.1369 22.3893 43.3616 25.2273 42.8296C27.7807 42.3507 29.958 41.1369 31.7746 39.269C33.408 37.5901 34.558 35.5941 35.404 33.4128C36.7723 29.8758 37.2654 26.1812 37.3259 22.6068L37.3259 22.6068ZM21.8883 44C21.4283 43.9665 20.9703 43.933 20.5103 43.8975C15.2475 43.4897 10.5636 41.669 6.67299 37.9941C3.69073 35.1783 1.71231 31.7359 0.73772 27.7359C-0.560438 22.4039 -0.174499 17.1842 2.12749 12.1891C4.54058 6.95162 8.53056 3.4127 13.8869 1.43831C16.4072 0.510226 19.025 0.0826384 21.7051 0.0117023C25.0265 -0.0769679 28.2758 0.328945 31.3789 1.54865C38.5129 4.35654 42.8694 9.60385 44.4638 17.1448C45.4501 21.8167 45.0934 26.4315 43.2475 30.8512C40.5284 37.3635 35.6535 41.3852 28.9385 43.1842C27.0849 43.6808 25.1902 43.9192 23.2703 43.9566C23.2021 43.9586 23.1358 43.9842 23.0676 44L21.8883 44Z" transform="translate(66 0)" id="Fill-1" fill="#FFFFFF" fill-rule="evenodd" stroke="none" />
      <path d="M12.4792 21.0025C12.4792 27.0911 12.4792 33.1796 12.4772 39.2662C12.4772 39.8153 12.5676 40.3251 12.9982 40.7094C13.3731 41.0428 13.8191 41.1879 14.3112 41.1898C15.3685 41.1918 16.4278 41.1879 17.4851 41.1918C17.8235 41.1918 17.9753 41.3212 17.9984 41.6036C18.0119 41.782 17.9407 41.9056 17.7696 41.9428C17.6158 41.9762 17.4563 41.9977 17.2986 41.9977C11.7352 41.9997 6.17367 41.9997 0.610223 41.9997C0.548706 41.9997 0.485266 42.0016 0.425671 41.9958C0.219974 41.9722 0.037345 41.9271 0.0469571 41.6507C0.0565691 41.3702 0.196905 41.2094 0.460275 41.1918C0.531404 41.1859 0.602533 41.1898 0.67174 41.1898L3.688 41.1898C4.6492 41.1898 5.25861 40.6937 5.46815 39.7349C5.50083 39.578 5.52005 39.4152 5.52005 39.2544C5.52197 27.1244 5.5239 14.9924 5.51621 2.86044C5.51621 2.53493 5.45469 2.19766 5.35857 1.88392C5.14711 1.18388 4.6319 0.813277 3.91484 0.811316C2.81138 0.805433 1.70984 0.809355 0.6083 0.807394C0.502568 0.807394 0.396835 0.803472 0.293025 0.785824C0.108474 0.758372 0.0200434 0.634836 0.00274168 0.452474C-0.01456 0.272073 0.0488795 0.125006 0.225741 0.0720625C0.373766 0.028923 0.535249 0.00147066 0.690964 0.00147066C6.21789 -0.000490221 11.7448 -0.000490221 17.2737 0.00147066C17.3967 0.00147066 17.5236 0.00343155 17.6389 0.0387275C17.8408 0.103437 17.9292 0.256386 17.91 0.476005C17.8907 0.681897 17.7677 0.774059 17.5812 0.79759C17.4928 0.809355 17.4044 0.809355 17.3179 0.809355C16.3028 0.809355 15.2897 0.803472 14.2747 0.811316C13.1232 0.819159 12.4965 1.46037 12.4792 2.63102C12.4792 2.71141 12.4792 2.79181 12.4792 2.87221L12.4792 21.0025Z" transform="translate(46 1)" id="Fill-10" fill="#FFFFFF" fill-rule="evenodd" stroke="none" />
      <path d="M13.1672 20.9357L13.1496 20.9357L13.1496 22.2826L13.1496 38.5195C13.1496 39.0311 13.1457 39.5428 13.1496 40.0565C13.1554 40.8544 13.492 41.1877 14.2806 41.1877C16.0045 41.1877 17.7264 41.1877 19.4504 41.1897C20.959 41.1897 22.4579 41.0661 23.9392 40.7642C27.113 40.1173 29.8975 38.7312 32.1771 36.3962C34.2141 34.3103 35.5565 31.8106 36.392 29.0385C37.7578 24.5117 37.9046 19.9182 37.024 15.2875C36.5192 12.6291 35.6054 10.1177 34.1496 7.8219C32.4648 5.16346 30.2302 3.14218 27.3009 1.93844C25.4009 1.15619 23.4108 0.82487 21.366 0.817028C19.0257 0.809186 16.6835 0.82487 14.3412 0.809186C13.5468 0.805265 13.1613 0.905251 13.1633 2.00313C13.1711 8.31399 13.1672 14.6248 13.1672 20.9357L13.1672 20.9357ZM5.96826 21.0239C5.96826 14.9464 5.97021 8.86685 5.96826 2.78929C5.96826 1.87962 5.56712 1.22677 4.83333 0.989552C4.5907 0.911132 4.32458 0.877804 4.06824 0.873883C2.90201 0.862119 1.73578 0.871922 0.567591 0.868001C0.166454 0.868001 -0.00378394 0.726845 0.000129582 0.421006C0.00404311 0.20143 0.103838 0.060274 0.324952 0.0289059C0.440401 0.0112614 0.557807 0.00734039 0.673256 0.00734039C7.48475 0.00537989 14.2962 -0.0103041 21.1077 0.0112614C24.8256 0.0230244 28.4749 0.517071 31.9834 1.81296C34.7092 2.82066 37.163 4.27535 39.2411 6.32604C41.8631 8.91194 43.5205 12.0409 44.3599 15.611C45.035 18.4733 45.1994 21.369 44.7415 24.2803C44.1584 28.0053 42.6184 31.2911 40.1138 34.1064C37.2726 37.3039 33.7054 39.3409 29.6607 40.5917C26.9193 41.4386 24.1074 41.9033 21.2447 41.9503C17.611 42.0091 13.9753 41.9895 10.3416 41.9974C7.11101 42.0033 3.88039 41.9974 0.649775 41.9974C0.231028 41.9974 0.0138269 41.8582 0.0118702 41.5876C0.00795663 41.321 0.234941 41.1701 0.651732 41.1701C1.79057 41.1701 2.9294 41.1759 4.0702 41.1681C5.29513 41.1622 5.96826 40.48 5.96826 39.2586C5.97021 36.5962 5.96826 33.9358 5.96826 31.2734L5.96826 21.0239Z" transform="translate(-6.370404E-05 1)" id="Fill-6" fill="#FFFFFF" fill-rule="evenodd" stroke="none" />
    </g>
  </g>
</svg>